<?xml version="1.0" encoding="utf-8"?>
<!-- Generator: Adobe Illustrator 16.0.0, SVG Export Plug-In . SVG Version: 6.00 Build 0)  -->
<!DOCTYPE svg PUBLIC "-//W3C//DTD SVG 1.1//EN" "http://www.w3.org/Graphics/SVG/1.1/DTD/svg11.dtd">
<svg version="1.1" id="Ebene_1" xmlns="http://www.w3.org/2000/svg" xmlns:xlink="http://www.w3.org/1999/xlink" x="0px" y="0px"
	 width="104px" height="50px" viewBox="0 0 104 50" enable-background="new 0 0 104 50" xml:space="preserve">
<g>
	<circle fill="#FFFFFF" cx="25.106" cy="25.238" r="22.09"/>
	<g>
		<path d="M24.955,0c7.022,0,12.947,2.41,17.767,7.232c4.849,4.852,7.276,10.774,7.276,17.769c0,7.023-2.381,12.871-7.144,17.543
			C37.795,47.515,31.83,50,24.955,50c-6.757,0-12.619-2.458-17.589-7.367C2.456,37.722,0,31.845,0,25
			c0-6.845,2.456-12.768,7.366-17.768C12.188,2.41,18.05,0,24.955,0z M25.044,4.509c-5.684,0-10.491,1.994-14.419,5.982
			C6.546,14.659,4.508,19.495,4.508,25c0,5.537,2.023,10.329,6.07,14.374c4.048,4.047,8.868,6.07,14.464,6.07
			c5.564,0,10.417-2.036,14.554-6.114c3.929-3.78,5.892-8.557,5.892-14.331c0-5.684-1.994-10.519-5.981-14.509
			C35.521,6.503,30.699,4.509,25.044,4.509z M31.741,18.795v10.224h-2.856v12.141h-7.768V29.019H18.26V18.795
			c0-0.447,0.156-0.826,0.468-1.139c0.313-0.312,0.693-0.469,1.138-0.469h10.269c0.417,0,0.789,0.157,1.116,0.469
			C31.576,17.969,31.741,18.348,31.741,18.795z M21.517,12.366c0-2.35,1.16-3.526,3.482-3.526s3.482,1.174,3.482,3.526
			c0,2.322-1.161,3.482-3.482,3.482S21.517,14.688,21.517,12.366z"/>
	</g>
</g>
<g>
	<circle fill="#FFFFFF" cx="79.221" cy="25.001" r="22.528"/>
	<path d="M78.953,0C85.944,0,91.9,2.44,96.811,7.322c2.352,2.35,4.138,5.038,5.356,8.058C103.389,18.401,104,21.608,104,25
		c0,3.423-0.604,6.631-1.809,9.622c-1.205,2.988-2.984,5.63-5.335,7.923c-2.44,2.41-5.207,4.258-8.304,5.536
		C85.459,49.358,82.257,50,78.953,50s-6.465-0.631-9.484-1.896c-3.021-1.267-5.731-3.097-8.127-5.491
		c-2.396-2.397-4.22-5.097-5.469-8.104c-1.249-3.006-1.875-6.173-1.875-9.508c0-3.304,0.632-6.481,1.897-9.532
		c1.264-3.05,3.103-5.781,5.513-8.193C66.17,2.426,72.019,0,78.953,0z M79.044,4.509c-5.716,0-10.523,1.996-14.423,5.983
		c-1.963,1.994-3.475,4.233-4.528,6.719c-1.059,2.485-1.587,5.083-1.587,7.791c0,2.677,0.528,5.259,1.587,7.745
		c1.054,2.485,2.565,4.704,4.528,6.654c1.965,1.951,4.182,3.437,6.654,4.463c2.469,1.026,5.059,1.54,7.769,1.54
		c2.678,0,5.273-0.518,7.792-1.56c2.514-1.043,4.781-2.547,6.807-4.511c3.898-3.809,5.847-8.588,5.847-14.331
		c0-2.768-0.504-5.386-1.52-7.856c-1.008-2.47-2.483-4.673-4.415-6.609C89.532,6.519,84.697,4.509,79.044,4.509z M78.729,20.85
		l-3.348,1.741c-0.358-0.743-0.797-1.265-1.318-1.562c-0.52-0.298-1.003-0.446-1.45-0.446c-2.231,0-3.347,1.473-3.347,4.419
		c0,1.34,0.278,2.41,0.846,3.214c0.565,0.807,1.399,1.206,2.501,1.206c1.458,0,2.484-0.714,3.08-2.144l3.081,1.562
		c-0.654,1.223-1.563,2.18-2.724,2.88c-1.158,0.701-2.441,1.05-3.84,1.05c-2.231,0-4.033-0.682-5.401-2.053
		c-1.369-1.371-2.055-3.275-2.055-5.715c0-2.381,0.693-4.27,2.075-5.669c1.385-1.399,3.132-2.099,5.248-2.099
		C75.175,17.233,77.39,18.438,78.729,20.85z M93.148,20.85l-3.303,1.741c-0.355-0.743-0.796-1.265-1.317-1.562
		c-0.521-0.298-1.022-0.446-1.495-0.446c-2.231,0-3.349,1.473-3.349,4.419c0,1.34,0.283,2.41,0.847,3.214
		c0.567,0.807,1.398,1.206,2.502,1.206c1.458,0,2.485-0.714,3.078-2.144l3.126,1.562c-0.685,1.223-1.607,2.18-2.768,2.88
		c-1.161,0.701-2.424,1.05-3.794,1.05c-2.262,0-4.069-0.682-5.421-2.053c-1.356-1.371-2.034-3.275-2.034-5.715
		c0-2.381,0.691-4.27,2.077-5.669c1.382-1.399,3.132-2.099,5.244-2.099C89.639,17.233,91.84,18.438,93.148,20.85z"/>
</g>
</svg>
